<?xml version="1.0" encoding="iso-8859-1"?>
<!-- Uploaded to: SVG Repo, www.svgrepo.com, Generator: SVG Repo Mixer Tools -->
<svg fill="#000000" height="800px" width="800px" version="1.1" id="Layer_1" xmlns="http://www.w3.org/2000/svg" xmlns:xlink="http://www.w3.org/1999/xlink" 
	 viewBox="0 0 512 512" xml:space="preserve">
<g>
	<g>
		<path d="M486.4,51.2H25.6C11.46,51.2,0,62.66,0,76.8v358.4c0,14.14,11.46,25.6,25.6,25.6h460.8c14.14,0,25.6-11.46,25.6-25.6V76.8
			C512,62.66,500.54,51.2,486.4,51.2z M25.6,76.8h153.6v102.4H25.6V76.8z M25.6,204.8h307.2v102.4H25.6V204.8z M179.2,435.2H25.6
			V332.8h153.6V435.2z M486.4,435.2H204.8V332.8h281.6V435.2z M486.4,307.2h-128V204.8h128V307.2z M486.4,179.2H204.8V76.8h281.6
			V179.2z"/>
	</g>
</g>
</svg>